<svg viewBox="0 0 446 281.7" xmlns="http://www.w3.org/2000/svg"><path d="m443.5 85.7-9.5-8.4-13.3 2-7.3-5.8-8.6-2.7-9.1-8-7.1-2.4-13.7 3.5-18.4-8-2.4 7.3-40.1-34.2-18.4-10.4 1.8-4.2-20.1 12.6-9.7.9-2.7-7.3-15.5-4.6-9.5 3.3-9.5-13.9-19.9-2.9-6.9 5.5-23.9 4.9-3.8 3.3-37.2 4.6-3.1 4.6 11.1 9.1-8.6 3.5 3.3 3.8-8 6.4 20.8 9.3-.4 6.6-15.3-.7-1.8 4-16.2-7.1-16.8.4-9.5 5.5-14.6-5.3-26.3-9.5-16.5.6-17.9 14.6 1.5 10.2-13.3-8-4.6 15 3.8 2.7-3.8 10.5 11.7 9.5 8-.4 9.3 9.1.4 7.1 6.2 2.2 9.7-2.9 11.1-6 10.4 3.3 10.8-.7 4.2 8.6 1.3 13.3-10.2-2-8.8 2.2 2 10-11-1.3 1.3 4.4 7.1 3.5 8.2 12.2 14.2 4.6 3.3 4.6-1.6 5.8 1.6 3.3 5.5 8.8-1.1-10 8.2-3.5 5.3 8 10.2 8.2-8.8 4.4-11.7-3.3.2 11.5 7.8.9-.9 9.7 10 4.6 1.5 15 4 10 9.7-2.7 6.6-8.2 7.8.4 4.6-2.7 8.4 1.3 14.4 7.3 9.5 1.6 16.2 12.6 8.6.4 3.5 12.2 13.1 5.3 8.6-1.8.9-6.6 8.9-2 5.5-4.4-.2-11.5 9.1-2.7.7-5.1 6.4 3.8 3.5.4h6.4l9.5 3.1 4 1.8 7.3-4.6 4.6 2.9 2-6.6 7.1.2 1.3-2-.4-5.8 3.8-5.1 7.1 3.3v4.4l3.5.7 2.2 11.9 5.8 4.6 3.3-2.9 4.6-1.6 5.5-6.4 8.4 1.1h11.9l-4-8.2-1.3-5.5-7.8-3.1-3.5 1.3-6.6-13 2.2-3.3-2.4-3.3 8.8-6.6 7.1-2.7 12.6 2 1.3-8.8 14.2-1.8 2.2-5.3 15-7.5.4-3.1-7.8-2-7.3-4.9-17.2-1.3-19-.4-3.5 1.5-17.9-5.7-5.5 2.9 5.5-2.9 17.9 5.7 3.5-1.5 19 .4 17.2 1.3 7.3 4.9 7.8 2-3.8-7.8 6.4-3.5-19.2-23.7 19.9-5.3 4.4-3.1-2.2-24.6 23.7 4.4 3.5-6.2-5.5-13.7 8.4-1.3zm-143.8 89.1 6.9-1.8 20.1 4.6-20.1-4.6-6.9 1.8-.7 6 4 1.3-6.9 9.1 10.2 5.1-10.2-5.1 6.9-9.1-4-1.3zm1.3 30.3 1.3 1.8zm-153.3-68.3 20.1 10 10.6 5.1 14.4 12.2 12.6-2 19-1.1 16.6 10 3.3 13.7 5.5.2 4.7 9-4.7-9-5.5-.2-3.3-13.7-16.6-10-19 1.1-12.6 2-14.4-12.2-10.6-5.1-20.1-10-2.4-1.1zm-28.8 6.8 2.9 10.7zm-23.2 39.4-2.1 2.3 2.1-2.3 2.3-.5zm54.6-.9-8.4 4.9 3.5 6.8-3.5-6.8 8.4-4.9 7.3-8zm33.9 13.1 12.1-.7zm64.6 39.6-13.7-7.1-9.3-6.6 9.3 6.6 13.7 7.1 17 6zm6.9-38.9 14.6.4 5.1 6.7-5.1-6.6zm16.1 28.3 9.3 3.5zm15.5-22.2 14.2-3.3zm30.3 8-9.1-1.3-3.1 4.4-13.1-2.4 1.3 8.2-1.3-8.2 13.1 2.4 3.1-4.4-4.6.4 4.6-.4 9.1 1.3 11.5-10-15.7-7.3 15.7 7.3z" fill="none" stroke="#000" stroke-linecap="round" stroke-linejoin="round" stroke-width="5"/></svg>